<?xml version="1.0" encoding="UTF-8"?>
<svg width="512" height="512" viewBox="0 0 512 512" xmlns="http://www.w3.org/2000/svg">
  <!-- 背景圆形 -->
  <circle cx="256" cy="256" r="256" fill="#3273dc"/>
  
  <!-- 点云效果（小圆点） -->
  <g fill="#ffffff" opacity="0.7">
    <circle cx="120" cy="160" r="8"/>
    <circle cx="150" cy="200" r="6"/>
    <circle cx="180" cy="150" r="7"/>
    <circle cx="220" cy="180" r="5"/>
    <circle cx="260" cy="140" r="8"/>
    <circle cx="300" cy="190" r="6"/>
    <circle cx="340" cy="160" r="7"/>
    <circle cx="380" cy="210" r="5"/>
    
    <circle cx="130" cy="280" r="7"/>
    <circle cx="170" cy="320" r="5"/>
    <circle cx="210" cy="270" r="6"/>
    <circle cx="250" cy="310" r="8"/>
    <circle cx="290" cy="260" r="5"/>
    <circle cx="330" cy="300" r="7"/>
    <circle cx="370" cy="270" r="6"/>
    <circle cx="390" cy="330" r="8"/>
  </g>
  
  <!-- 字母G -->
  <path d="M320,256 L256,256 L256,192 L320,192 L320,128 L192,128 C174.4,128 160,142.4 160,160 L160,352 C160,369.6 174.4,384 192,384 L320,384 L320,320 L256,320 L256,256 L320,256 Z" 
        fill="#ffffff"/>
</svg>
